<svg xmlns="http://www.w3.org/2000/svg" xmlns:xlink="http://www.w3.org/1999/xlink" width="200" height="200" viewBox="0 0 200 200"><defs><style>.a,.j,.l{fill:#fff;}.a{stroke:#707070;}.b{clip-path:url(#a);}.c{fill:#00ffd3;}.d{fill:url(#b);}.e{fill:url(#c);}.f{fill:#bdd0fb;}.g{fill:url(#d);}.h{fill:url(#e);}.i{fill:url(#f);}.j,.k{opacity:0.57;}.m{fill:url(#g);}.n{fill:url(#h);}.o{fill:url(#i);}.p{fill:url(#j);}.q{fill:url(#k);}.r{fill:url(#l);}.s{fill:url(#m);}.t{fill:url(#n);}.u{fill:url(#o);}.v{fill:url(#p);}.w{fill:url(#q);}.x{fill:url(#r);}.y{fill:url(#s);}.z{fill:url(#t);}.aa{fill:url(#u);}.ab{fill:url(#v);}.ac{fill:url(#w);}.ad{fill:url(#x);}.ae{fill:url(#y);}.af{fill:url(#z);}</style><clipPath id="a"><rect class="a" width="200" height="200" transform="translate(5397 1198)"/></clipPath><linearGradient id="b" x1="0.793" y1="0.069" x2="-0.25" y2="1.371" gradientUnits="objectBoundingBox"><stop offset="0" stop-color="#09005d"/><stop offset="1" stop-color="#1a0f91"/></linearGradient><linearGradient id="c" x1="1.121" y1="-0.125" x2="-0.708" y2="1.745" gradientUnits="objectBoundingBox"><stop offset="0" stop-color="#4f52ff"/><stop offset="1" stop-color="#4042e2"/></linearGradient><linearGradient id="d" x1="-1.266" y1="11.909" x2="-4.287" y2="15.553" xlink:href="#b"/><linearGradient id="e" x1="0.018" y1="18.409" x2="-1.061" y2="24.326" xlink:href="#b"/><linearGradient id="f" x1="0.139" y1="17.615" x2="-0.306" y2="23.142" xlink:href="#b"/><linearGradient id="g" x1="33.754" y1="-0.484" x2="30.919" y2="6.012" xlink:href="#b"/><linearGradient id="h" x1="130.299" y1="0.5" x2="131.299" y2="0.5" gradientUnits="objectBoundingBox"><stop offset="0" stop-color="#febbba"/><stop offset="1" stop-color="#ff928e"/></linearGradient><linearGradient id="i" x1="-0.484" y1="0.93" x2="1.419" y2="0.109" xlink:href="#b"/><linearGradient id="j" x1="84.299" y1="-2.223" x2="77.281" y2="5.384" xlink:href="#b"/><linearGradient id="k" x1="150.914" y1="0.5" x2="151.914" y2="0.5" xlink:href="#h"/><linearGradient id="l" x1="-0.336" y1="0.859" x2="1.004" y2="0.053" xlink:href="#b"/><linearGradient id="m" x1="-0.5" y1="1.516" x2="0.193" y2="0.611" gradientUnits="objectBoundingBox"><stop offset="0" stop-color="#ff928e"/><stop offset="1" stop-color="#fe7062"/></linearGradient><linearGradient id="n" x1="-0.567" y1="1.123" x2="1.319" y2="0.08" xlink:href="#h"/><linearGradient id="o" x1="-4.009" y1="1.943" x2="1.439" y2="0.241" xlink:href="#h"/><linearGradient id="p" x1="-135.91" y1="1.716" x2="-137.786" y2="-0.451" xlink:href="#h"/><linearGradient id="q" x1="-1.38" y1="3.167" x2="0.358" y2="0.852" xlink:href="#m"/><linearGradient id="r" x1="20.154" y1="0.5" x2="21.154" y2="0.5" xlink:href="#h"/><linearGradient id="s" x1="19.196" y1="-0.062" x2="19.709" y2="2.428" xlink:href="#b"/><linearGradient id="t" x1="-21.354" y1="360.051" x2="-19.383" y2="354.169" gradientUnits="objectBoundingBox"><stop offset="0" stop-color="#53d8ff"/><stop offset="1" stop-color="#3840f7"/></linearGradient><linearGradient id="u" x1="-10.841" y1="247.221" x2="-9.808" y2="243.179" xlink:href="#t"/><linearGradient id="v" x1="64.691" y1="0.5" x2="65.691" y2="0.5" xlink:href="#h"/><linearGradient id="w" x1="-0.236" y1="2.179" x2="0.697" y2="0.21" xlink:href="#h"/><linearGradient id="x" x1="-5.454" y1="13.691" x2="-5.776" y2="12.626" xlink:href="#h"/><linearGradient id="y" x1="-4.052" y1="9.38" x2="-3.847" y2="10.559" xlink:href="#b"/><linearGradient id="z" x1="-18.998" y1="63.912" x2="-19.941" y2="59.265" xlink:href="#h"/></defs><g class="b" transform="translate(-5397 -1198)"><g transform="translate(4934.551 752.67)"><path class="c" d="M644.935,577.49c-18.242,42.638-66.395,60.952-104.123,57.83-10.3-.853-31.028-2.568-47.212-17.872-31.079-29.391-26.293-90.826,3.459-127,3.831-4.658,30.352-35.865,71.679-35.448,30.258.306,51.5,17.4,54.078,19.527a83.3,83.3,0,0,1,16.942,19.223C654.995,517.582,656.334,550.845,644.935,577.49Z" transform="translate(0 0)"/><g transform="translate(488.157 458.398)"><g transform="translate(0 0)"><path class="d" d="M728.649,794.99l90.825,2.406a9.413,9.413,0,0,1,9.161,9.18l3.215,131.857a6.941,6.941,0,0,1-7,7.11l-104.147-.866a6.589,6.589,0,0,1-6.531-6.763l3.511-132.528A10.684,10.684,0,0,1,728.649,794.99Z" transform="translate(-714.172 -776.244)"/><g transform="translate(8.32 17.645)"><path class="e" d="M848.394,778.18c12.359,2.011,54.871,8.343,90.206,6.57a2.87,2.87,0,0,1,3.018,2.787l3.525,132.453a3.3,3.3,0,0,1-3.194,3.39c-14.854.485-76.023,2.259-97.748-.6a2.616,2.616,0,0,1-2.272-2.65l2.864-138.949A3.1,3.1,0,0,1,848.394,778.18Z" transform="translate(-841.929 -778.139)"/></g><g transform="translate(12.193 24.571)"><path class="f" d="M907.438,884.521c11.524,1.875,51.168,7.78,84.118,6.127a2.676,2.676,0,0,1,2.814,2.6l3.287,123.513a3.079,3.079,0,0,1-2.978,3.161c-13.852.452-70.892,2.107-91.151-.559a2.44,2.44,0,0,1-2.118-2.472l2.67-129.57A2.894,2.894,0,0,1,907.438,884.521Z" transform="translate(-901.41 -884.482)"/></g><path class="g" d="M1568.824,509.32c-3.22-2.369-6.074-2.4-8.1-1.86a4.007,4.007,0,0,0-2.956,4.136l.615,9.476,10.281,1.187S1575.14,513.966,1568.824,509.32Zm-4.734,7.506a2.57,2.57,0,1,1,2.638-2.5A2.57,2.57,0,0,1,1564.091,516.825Z" transform="translate(-1502.826 -507.175)"/><g transform="translate(55.917 1.148)"><path class="f" d="M1573.422,533.822a.511.511,0,0,1-.322-.442l-.1-1.509a.511.511,0,0,1,1.019-.066l.1,1.509a.511.511,0,0,1-.7.508Zm-.192-2.957a.511.511,0,0,1-.321-.442l-.074-1.146a4.087,4.087,0,0,1,3.011-4.21,7.969,7.969,0,0,1,3.9-.057.511.511,0,0,1-.231.995,6.954,6.954,0,0,0-3.4.049,3.064,3.064,0,0,0-2.255,3.157l.074,1.146a.511.511,0,0,1-.7.508Z" transform="translate(-1572.825 -524.796)"/></g><path class="h" d="M1348.88,699.873l.126-4.752a2.9,2.9,0,0,1,3.076-2.819l32.736,1.991a2.822,2.822,0,0,1,2.649,2.722l.153,4.574Z" transform="translate(-1307.547 -680.241)"/><path class="f" d="M1517.341,719.237l1.409.037Z" transform="translate(-1465.038 -705.427)"/><path class="f" d="M1369.306,713.985a.511.511,0,0,1-.322-.488l.051-1.923a2.957,2.957,0,0,1,3.034-2.878l5.18.138a.511.511,0,0,1-.027,1.021l-5.18-.138a1.938,1.938,0,0,0-1.986,1.884l-.051,1.923a.511.511,0,0,1-.524.5A.517.517,0,0,1,1369.306,713.985Z" transform="translate(-1326.342 -695.572)"/><path class="i" d="M1143.626,777.742l57.3,1.517a4.237,4.237,0,0,1,4.08,3.623l.041.281a3.638,3.638,0,0,1-3.7,4.162l-58.784-1.558a2.365,2.365,0,0,1-2.3-2.541l.2-2.628A3.089,3.089,0,0,1,1143.626,777.742Z" transform="translate(-1112.514 -760.122)"/></g><path class="j" d="M1085.924,2693.942a1.669,1.669,0,0,1-1.491,1.776l-80.072.305a1.742,1.742,0,0,1-1.619-1.852v-.156a1.76,1.76,0,0,1,1.625-1.862l80.1-.128a1.621,1.621,0,0,1,1.457,1.769Z" transform="translate(-983.95 -2549.746)"/><path class="j" d="M1085.924,2821.692a1.669,1.669,0,0,1-1.491,1.776l-80.072.305a1.742,1.742,0,0,1-1.619-1.853v-.155a1.76,1.76,0,0,1,1.625-1.862l80.1-.127a1.62,1.62,0,0,1,1.457,1.769Z" transform="translate(-983.95 -2669.177)"/><path class="j" d="M1090.634,1775.208a1.669,1.669,0,0,1-1.491,1.776l-80.072.305a1.742,1.742,0,0,1-1.619-1.853v-.155a1.76,1.76,0,0,1,1.625-1.862l80.1-.128a1.621,1.621,0,0,1,1.457,1.769Z" transform="translate(-988.353 -1690.841)"/><path class="j" d="M1090.634,1902.957a1.669,1.669,0,0,1-1.491,1.776l-80.072.305a1.742,1.742,0,0,1-1.619-1.853v-.155a1.76,1.76,0,0,1,1.625-1.862l80.1-.128a1.621,1.621,0,0,1,1.457,1.769Z" transform="translate(-988.353 -1810.271)"/><path class="j" d="M1697.713,2220.819c-.01.978-.327,1.776-.709,1.783l-37.607.719c-.421.008-.757-.817-.751-1.844v-.155c.006-1.027.352-1.864.773-1.87l37.62-.541c.383-.005.685.783.675,1.761Z" transform="translate(-1597.14 -2107.44)"/><path class="j" d="M1698.7,2347.19c-.01.978-.327,1.776-.709,1.784l-37.607.719c-.421.008-.757-.817-.751-1.844v-.155c.006-1.027.352-1.864.773-1.87l37.62-.541c.383-.005.685.783.675,1.761Z" transform="translate(-1598.066 -2225.582)"/><path class="j" d="M1698.043,2465.074c-.01.978-.327,1.776-.709,1.783l-37.607.719c-.42.008-.757-.817-.751-1.844v-.156c.006-1.026.352-1.864.773-1.87l37.62-.541c.383-.005.685.783.675,1.761Z" transform="translate(-1597.449 -2335.789)"/><g class="k" transform="translate(34.245 44.063)"><rect class="l" width="3.703" height="10.353" transform="translate(0 18.2)"/><rect class="l" width="3.703" height="23.751" transform="translate(6.188 4.802)"/><rect class="l" width="3.703" height="5.706" transform="translate(12.376 22.847)"/><rect class="l" width="3.703" height="20.576" transform="translate(18.564 7.977)"/><rect class="l" width="3.703" height="17.013" transform="translate(24.753 11.54)"/><rect class="l" width="3.703" height="13.141" transform="translate(30.941 15.412)"/><rect class="l" width="3.703" height="28.553" transform="translate(37.129)"/><rect class="l" width="3.703" height="25.532" transform="translate(43.317 3.02)"/><rect class="l" width="3.703" height="20.963" transform="translate(49.505 7.59)"/><rect class="l" width="3.703" height="5.176" transform="translate(55.693 23.376)"/><rect class="l" width="3.703" height="15.232" transform="translate(61.881 13.321)"/></g><rect class="j" width="36.679" height="31.592" rx="15.796" transform="translate(19.681 103.545)"/><rect class="j" width="11.615" height="31.122" rx="5.807" transform="translate(18.876 41.921)"/></g><g transform="translate(496.043 525.203)"><path class="m" d="M1187.225,3124.481s-.382,2.162-.569,4.3a1.475,1.475,0,0,0,1.411,1.6c2.85.119,8.948.35,11.136.252a.48.48,0,0,0,.422-.657,1.073,1.073,0,0,0-.549-.579L1189,3124.769Z" transform="translate(-1163.769 -3020.844)"/><path class="n" d="M1190.673,3099.234l.307,2.587s1.765.821,2.969-.1l-.731-2.883Z" transform="translate(-1167.529 -2996.868)"/><path class="o" d="M1079.377,2358.218c-.133.675-.712,33.707,2.819,48.51a.5.5,0,0,1-.295.584,8.746,8.746,0,0,1-2.875.584.866.866,0,0,1-.858-.621c-1.009-3.435-5.846-20.642-6.477-37.08-.7-18.368,0-.625,0-.625l.414-11.354Z" transform="translate(-1056.003 -2304.479)"/><path class="p" d="M1000.116,3141.8a15.552,15.552,0,0,0-1.2,3.992.9.9,0,0,0,.792,1.078c.941.093,2.39.212,3.551.2a.9.9,0,0,0,.888-1,7.568,7.568,0,0,0-1.766-4.15Z" transform="translate(-988.245 -3037.039)"/><path class="q" d="M1009.359,3088.535l.717,3.912a2.529,2.529,0,0,0,2.112.145l-.342-4.209Z" transform="translate(-998.023 -2987.097)"/><path class="r" d="M963.652,2347.558c-2.888,17.428.626,43.074,1.812,48.094a.782.782,0,0,0,.632.594,5.255,5.255,0,0,0,2.259-.09.718.718,0,0,0,.516-.661c.159-4.058-.127-28.972,2.563-38.818a2.235,2.235,0,0,1,.863-1.234l5.223-3.713.4-6Z" transform="translate(-954.253 -2292.806)"/><g transform="translate(8.321 8.327)"><path class="s" d="M982.532,1846.4a81.366,81.366,0,0,0-18.2,2.272c-2.58,15.052-.451,32.413-.451,32.413,6.7,1.757,14.257-1.074,14.257-1.074,1.114-6.292,6.309-24,6.309-24a28.506,28.506,0,0,0,10.58-3.358,18.555,18.555,0,0,1-3.667-7.671A29.03,29.03,0,0,1,982.532,1846.4Z" transform="translate(-963.053 -1832.999)"/><path class="t" d="M1414.432,1661.553a1.656,1.656,0,0,0-1.926-.541c-1.273,5.38-7.951,9.741-14.811,11.873a18.552,18.552,0,0,0,3.667,7.671C1412.748,1674.155,1414.432,1661.553,1414.432,1661.553Z" transform="translate(-1369.391 -1660.897)"/></g><g transform="translate(51.436 0)"><path class="u" d="M1626.858,1542.276c.089.283-.941.713-1.548-.443-.021-.554-.358-2.929-.027-3.381a44.234,44.234,0,0,1,5.184-5.42.814.814,0,0,1,.1,1.131l-1.659,1.728a8.023,8.023,0,0,1,.969,1.915,2.325,2.325,0,0,1-.232,1.711c-.291.525-.689,1.207-1.064,1.74A2.3,2.3,0,0,1,1626.858,1542.276Z" transform="translate(-1625.138 -1533.032)"/><path class="v" d="M1643.395,1594.157l-1.512,1.282-.475,1.276,1.348,1.5a17.382,17.382,0,0,1,.79-3.08C1643.883,1594.582,1643.708,1594.317,1643.395,1594.157Z" transform="translate(-1640.349 -1590.177)"/></g><path class="w" d="M850.842,1909.984l-3.319-8.38s-8.083,5.492-9.413,12.456a19.129,19.129,0,0,1,7.027,1.884C845.735,1912.655,850.842,1909.984,850.842,1909.984Z" transform="translate(-837.926 -1877.602)"/><path class="x" d="M855.261,2096.687s-9.076,5.129-12.138.75a3.443,3.443,0,0,1-.631-2.675,19.133,19.133,0,0,0-7.027-1.883,9.612,9.612,0,0,0,1.045,6.589c5.364,9.812,19.952-.542,19.952-.542Z" transform="translate(-835.28 -2056.42)"/><g transform="translate(18.87 26.341)"><path class="y" d="M1125.069,1982.053l4.953-17.3a.5.5,0,0,1,.427-.363c.9-.1,3.5-.4,6.5-.653a73.753,73.753,0,0,1,10.326-.343.506.506,0,0,1,.414.728c-1.427,2.887-7.3,14.632-10.237,18.48a.507.507,0,0,1-.408.2l-11.492-.107A.506.506,0,0,1,1125.069,1982.053Z" transform="translate(-1125.049 -1961.638)"/><path class="z" d="M1309.418,1938.119l3.591-.6a.258.258,0,0,1,.287.335l-.356,1.077a.257.257,0,0,1-.21.175l-3.456.462a.258.258,0,0,1-.285-.314l.22-.941A.258.258,0,0,1,1309.418,1938.119Z" transform="translate(-1297.005 -1937.517)"/><path class="aa" d="M1274.287,1956.607l.3-1.541a.356.356,0,0,1,.314-.287l7.253-.736a.356.356,0,0,1,.382.438l-.461,1.92a.356.356,0,0,1-.328.272l-7.088.357A.356.356,0,0,1,1274.287,1956.607Z" transform="translate(-1264.562 -1952.965)"/><path class="ab" d="M1136.871,2102.168s-.69-2.837-.412-3.844.818-2.3,2.615-2.013a26.275,26.275,0,0,1,3.918,1.045,1.029,1.029,0,0,1-1.473.888l.847.655s-.121,1.05-1.275.489l.788.869a.918.918,0,0,1-1.344.309C1139.685,2100.014,1139.278,2102.51,1136.871,2102.168Z" transform="translate(-1135.654 -2085.932)"/></g><path class="ac" d="M1087.807,1758.824l-2.754,7.963a.287.287,0,0,0,.131.345,6.473,6.473,0,0,0,6.714-.452,1.352,1.352,0,0,0,.622-.965l.892-6.892Z" transform="translate(-1068.773 -1744.12)"/><g transform="translate(13.808 3.191)"><path class="ad" d="M1118.247,1645.586s3.024,5.692,2.636,7.991-4.135,2.134-7.407.267l-2.287-6.146Z" transform="translate(-1107.029 -1641.448)"/><path class="ae" d="M1053.906,1591.414a.235.235,0,0,0,.1-.344,6.118,6.118,0,0,1-.841-1.786s-.544-.348,1.383-.809,4.8-1.177,5.4-2.818c.589-1.6-.958-5.621-3.427-2.417a.235.235,0,0,1-.372,0,2.418,2.418,0,0,0-2.946-.957,2.219,2.219,0,0,0-1.519,2.144.233.233,0,0,1-.276.239,2.706,2.706,0,0,0-3.159,1.473c-.645,1.417-.226,2.219.156,2.612a.234.234,0,0,1-.1.388,1.407,1.407,0,0,0-.993,1.606c.082,1.488,1.745,1.357,2.219,1.289a.234.234,0,0,1,.208.074c.406.449,2.236,2.357,4.216,2.587a.237.237,0,0,0,.248-.313l-.857-2.491a.235.235,0,0,1,.127-.292Z" transform="translate(-1047.316 -1582.035)"/><path class="af" d="M1120.529,1720.974s-2.153-1.477-2.31-.233,1.939,1.8,2.977,1.338Z" transform="translate(-1113.593 -1711.242)"/></g></g></g></g></svg>