<svg xmlns="http://www.w3.org/2000/svg" xmlns:xlink="http://www.w3.org/1999/xlink" width="280" height="230" viewBox="0 0 280 230"><defs><style type="text/css">@import url('https://fonts.googleapis.com/css2?family=Poppins:ital,wght@0,100;0,200;0,300;0,400;0,500;0,600;0,700;0,800;0,900;1,100;1,200;1,300;1,400;1,500;1,600;1,700;1,800;1,900');</style><style>.a,.b,.l{fill:#fff;}.b{stroke:#707070;}.c{clip-path:url(#a);}.d{clip-path:url(#b);}.e{fill:#00ffd3;}.f{fill:url(#c);}.g{fill:url(#d);}.h{fill:#bdd0fb;}.i{fill:url(#e);}.j{fill:url(#f);}.k{fill:url(#g);}.l,.m{opacity:0.57;}.n{fill:url(#h);}.o{fill:url(#i);}.p{fill:url(#j);}.q{fill:url(#k);}.r{fill:url(#l);}.s{fill:url(#m);}.t{fill:url(#n);}.u{fill:url(#o);}.v{fill:url(#p);}.w{fill:url(#q);}.x{fill:url(#r);}.y{fill:url(#s);}.z{fill:url(#t);}.aa{fill:url(#u);}.ab{fill:url(#v);}.ac{fill:url(#w);}.ad{fill:url(#x);}.ae{fill:url(#y);}.af{fill:url(#z);}.ag{fill:url(#aa);}.ah{fill:#5000c8;font-size:135px;font-family:Poppins-ExtraBold, Poppins;font-weight:800;}</style><clipPath id="a"><rect class="a" width="280" height="230" transform="translate(48 875)"/></clipPath><clipPath id="b"><rect class="b" width="189" height="189" transform="translate(5396.716 1198.296)"/></clipPath><linearGradient id="c" x1="0.793" y1="0.069" x2="-0.25" y2="1.371" gradientUnits="objectBoundingBox"><stop offset="0" stop-color="#09005d"/><stop offset="1" stop-color="#1a0f91"/></linearGradient><linearGradient id="d" x1="1.121" y1="-0.125" x2="-0.708" y2="1.745" gradientUnits="objectBoundingBox"><stop offset="0" stop-color="#4f52ff"/><stop offset="1" stop-color="#4042e2"/></linearGradient><linearGradient id="e" x1="-1.266" y1="11.909" x2="-4.287" y2="15.553" xlink:href="#c"/><linearGradient id="f" x1="0.018" y1="18.409" x2="-1.061" y2="24.326" xlink:href="#c"/><linearGradient id="g" x1="0.139" y1="17.615" x2="-0.306" y2="23.142" xlink:href="#c"/><linearGradient id="h" x1="33.754" y1="-0.484" x2="30.919" y2="6.012" xlink:href="#c"/><linearGradient id="i" x1="130.299" y1="0.5" x2="131.299" y2="0.5" gradientUnits="objectBoundingBox"><stop offset="0" stop-color="#febbba"/><stop offset="1" stop-color="#ff928e"/></linearGradient><linearGradient id="j" x1="-0.484" y1="0.93" x2="1.419" y2="0.109" xlink:href="#c"/><linearGradient id="k" x1="84.299" y1="-2.223" x2="77.281" y2="5.384" xlink:href="#c"/><linearGradient id="l" x1="150.914" y1="0.5" x2="151.914" y2="0.5" xlink:href="#i"/><linearGradient id="m" x1="-0.336" y1="0.859" x2="1.004" y2="0.053" xlink:href="#c"/><linearGradient id="n" x1="-0.5" y1="1.516" x2="0.193" y2="0.611" gradientUnits="objectBoundingBox"><stop offset="0" stop-color="#ff928e"/><stop offset="1" stop-color="#fe7062"/></linearGradient><linearGradient id="o" x1="-0.567" y1="1.123" x2="1.319" y2="0.08" xlink:href="#i"/><linearGradient id="p" x1="-4.009" y1="1.943" x2="1.439" y2="0.241" xlink:href="#i"/><linearGradient id="q" x1="-135.91" y1="1.716" x2="-137.786" y2="-0.451" xlink:href="#i"/><linearGradient id="r" x1="-1.38" y1="3.167" x2="0.358" y2="0.852" xlink:href="#n"/><linearGradient id="s" x1="20.154" y1="0.5" x2="21.154" y2="0.5" xlink:href="#i"/><linearGradient id="t" x1="19.196" y1="-0.062" x2="19.709" y2="2.428" xlink:href="#c"/><linearGradient id="u" x1="-21.354" y1="360.051" x2="-19.383" y2="354.169" gradientUnits="objectBoundingBox"><stop offset="0" stop-color="#53d8ff"/><stop offset="1" stop-color="#3840f7"/></linearGradient><linearGradient id="v" x1="-10.841" y1="247.221" x2="-9.808" y2="243.179" xlink:href="#u"/><linearGradient id="w" x1="64.691" y1="0.5" x2="65.691" y2="0.5" xlink:href="#i"/><linearGradient id="x" x1="-0.236" y1="2.179" x2="0.697" y2="0.21" xlink:href="#i"/><linearGradient id="y" x1="-5.454" y1="13.691" x2="-5.776" y2="12.626" xlink:href="#i"/><linearGradient id="z" x1="-4.052" y1="9.38" x2="-3.847" y2="10.559" xlink:href="#c"/><linearGradient id="aa" x1="-18.998" y1="63.912" x2="-19.941" y2="59.265" xlink:href="#i"/></defs><g class="c" transform="translate(-48 -875)"><g transform="translate(-28 -60)"><g class="d" transform="translate(-5240.716 -247.296)"><g transform="translate(5406.417 1207.14)"><path class="e" d="M635.455,570.76c-17.24,40.3-62.747,57.6-98.4,54.653-9.735-.806-29.323-2.427-44.618-16.89-29.372-27.776-24.848-85.836,3.269-120.018,3.621-4.4,28.684-33.895,67.741-33.5,28.6.289,48.666,16.442,51.106,18.454a78.717,78.717,0,0,1,16.011,18.167C644.963,514.143,646.228,545.579,635.455,570.76Z" transform="translate(-472.413 -455)"/><g transform="translate(14.879 3.211)"><g transform="translate(0 0)"><path class="f" d="M727.853,794.99l85.835,2.274a8.9,8.9,0,0,1,8.657,8.676l3.039,124.613a6.56,6.56,0,0,1-6.613,6.72l-98.425-.818a6.227,6.227,0,0,1-6.173-6.391l3.318-125.246A10.1,10.1,0,0,1,727.853,794.99Z" transform="translate(-714.172 -777.273)"/><g transform="translate(7.863 16.676)"><path class="g" d="M848.039,778.178c11.679,1.9,51.857,7.884,85.25,6.209a2.712,2.712,0,0,1,2.852,2.634L939.472,912.2a3.121,3.121,0,0,1-3.018,3.2c-14.038.458-71.846,2.135-92.378-.567a2.472,2.472,0,0,1-2.147-2.5l2.706-131.314A2.933,2.933,0,0,1,848.039,778.178Z" transform="translate(-841.929 -778.139)"/></g><g transform="translate(11.523 23.221)"><path class="h" d="M907.107,884.518c10.891,1.772,48.357,7.352,79.5,5.79a2.529,2.529,0,0,1,2.659,2.456l3.107,116.727a2.91,2.91,0,0,1-2.814,2.987c-13.091.427-67,1.991-86.143-.529a2.306,2.306,0,0,1-2-2.336l2.524-122.451A2.735,2.735,0,0,1,907.107,884.518Z" transform="translate(-901.41 -884.482)"/></g><path class="i" d="M1568.217,509.2a8.723,8.723,0,0,0-7.653-1.758,3.787,3.787,0,0,0-2.794,3.909l.582,8.955,9.716,1.122S1574.185,513.593,1568.217,509.2Zm-4.474,7.093a2.429,2.429,0,1,1,2.493-2.364A2.429,2.429,0,0,1,1563.743,516.3Z" transform="translate(-1505.844 -507.175)"/><g transform="translate(52.844 1.084)"><path class="h" d="M1573.389,533.326a.483.483,0,0,1-.3-.417l-.093-1.426a.483.483,0,0,1,.963-.062l.093,1.426a.483.483,0,0,1-.659.48Zm-.182-2.795a.483.483,0,0,1-.3-.418l-.07-1.083a3.862,3.862,0,0,1,2.845-3.978,7.531,7.531,0,0,1,3.683-.054.483.483,0,0,1-.219.94,6.571,6.571,0,0,0-3.216.046,2.9,2.9,0,0,0-2.131,2.984l.07,1.083a.483.483,0,0,1-.659.48Z" transform="translate(-1572.825 -524.797)"/></g><path class="j" d="M1348.88,699.457l.119-4.491a2.741,2.741,0,0,1,2.907-2.664l30.938,1.881a2.667,2.667,0,0,1,2.5,2.572l.144,4.323Z" transform="translate(-1309.818 -680.903)"/><path class="h" d="M1517.341,719.237l1.332.035Z" transform="translate(-1467.912 -706.186)"/><path class="h" d="M1369.288,713.695a.482.482,0,0,1-.3-.461l.048-1.817a2.794,2.794,0,0,1,2.867-2.719l4.9.13a.483.483,0,0,1-.026.965l-4.9-.13a1.831,1.831,0,0,0-1.877,1.78l-.048,1.817a.483.483,0,0,1-.5.47A.489.489,0,0,1,1369.288,713.695Z" transform="translate(-1328.685 -696.294)"/><path class="k" d="M1143.441,777.742l54.149,1.433a4,4,0,0,1,3.856,3.424l.039.266a3.439,3.439,0,0,1-3.494,3.934l-55.554-1.472a2.235,2.235,0,0,1-2.17-2.4l.185-2.483A2.919,2.919,0,0,1,1143.441,777.742Z" transform="translate(-1114.038 -761.09)"/></g><path class="l" d="M1081.354,2693.837a1.577,1.577,0,0,1-1.409,1.678l-75.672.288a1.646,1.646,0,0,1-1.53-1.75v-.147a1.663,1.663,0,0,1,1.536-1.759l75.7-.121a1.532,1.532,0,0,1,1.377,1.671Z" transform="translate(-984.983 -2557.563)"/><path class="l" d="M1081.354,2821.587a1.577,1.577,0,0,1-1.409,1.678l-75.672.289a1.646,1.646,0,0,1-1.53-1.751v-.146a1.663,1.663,0,0,1,1.536-1.76l75.7-.12a1.531,1.531,0,0,1,1.377,1.671Z" transform="translate(-984.983 -2677.451)"/><path class="l" d="M1086.063,1775.1a1.577,1.577,0,0,1-1.409,1.678l-75.672.289a1.646,1.646,0,0,1-1.53-1.751v-.147a1.663,1.663,0,0,1,1.536-1.76l75.7-.12a1.532,1.532,0,0,1,1.377,1.671Z" transform="translate(-989.402 -1695.371)"/><path class="l" d="M1086.063,1902.852a1.577,1.577,0,0,1-1.409,1.678l-75.672.288a1.646,1.646,0,0,1-1.53-1.751v-.147a1.663,1.663,0,0,1,1.536-1.76l75.7-.121a1.532,1.532,0,0,1,1.377,1.672Z" transform="translate(-989.402 -1815.258)"/><path class="l" d="M1695.567,2220.714c-.009.924-.309,1.679-.67,1.685l-35.541.679c-.4.008-.715-.772-.71-1.743v-.147c.006-.971.333-1.762.731-1.767l35.553-.512c.362,0,.647.74.638,1.664Z" transform="translate(-1600.52 -2113.565)"/><path class="l" d="M1696.557,2347.085c-.009.924-.309,1.679-.67,1.686l-35.541.679c-.4.008-.715-.772-.71-1.743v-.146c.006-.97.333-1.762.73-1.768l35.553-.511c.362-.005.647.74.638,1.664Z" transform="translate(-1601.449 -2232.159)"/><path class="l" d="M1695.9,2464.969c-.009.924-.309,1.678-.67,1.685l-35.541.679c-.4.007-.715-.772-.71-1.743v-.147c.006-.97.333-1.761.73-1.767l35.553-.512c.362,0,.647.74.638,1.664Z" transform="translate(-1600.829 -2342.788)"/><g class="m" transform="translate(32.364 41.642)"><rect class="a" width="3.5" height="9.784" transform="translate(0 17.2)"/><rect class="a" width="3.5" height="22.446" transform="translate(5.848 4.538)"/><rect class="a" width="3.5" height="5.392" transform="translate(11.696 21.592)"/><rect class="a" width="3.5" height="19.445" transform="translate(17.544 7.539)"/><rect class="a" width="3.5" height="16.078" transform="translate(23.393 10.906)"/><rect class="a" width="3.5" height="12.419" transform="translate(29.241 14.565)"/><rect class="a" width="3.5" height="26.984" transform="translate(35.089)"/><rect class="a" width="3.5" height="24.13" transform="translate(40.937 2.854)"/><rect class="a" width="3.5" height="19.811" transform="translate(46.785 7.173)"/><rect class="a" width="3.5" height="4.892" transform="translate(52.633 22.092)"/><rect class="a" width="3.5" height="14.395" transform="translate(58.481 12.589)"/></g><rect class="l" width="34.664" height="29.856" rx="14.928" transform="translate(18.6 97.855)"/><rect class="l" width="10.976" height="29.412" rx="5.488" transform="translate(17.839 39.618)"/></g><g transform="translate(22.332 66.345)"><path class="n" d="M1187.193,3124.481s-.361,2.043-.538,4.067a1.394,1.394,0,0,0,1.333,1.51c2.694.112,8.456.33,10.524.238a.453.453,0,0,0,.4-.621,1.012,1.012,0,0,0-.519-.547l-9.519-4.375Z" transform="translate(-1165.026 -3026.539)"/><path class="o" d="M1190.673,3099.212l.29,2.445a3.033,3.033,0,0,0,2.806-.1l-.69-2.724Z" transform="translate(-1168.801 -3002.47)"/><path class="p" d="M1078.938,2358.218c-.125.638-.672,31.855,2.664,45.845a.474.474,0,0,1-.279.552,8.26,8.26,0,0,1-2.718.552.818.818,0,0,1-.811-.587c-.954-3.246-5.524-19.508-6.121-35.042-.666-17.359,0-.592,0-.592l.391-10.73Z" transform="translate(-1056.848 -2307.432)"/><path class="q" d="M1000.049,3141.8a14.689,14.689,0,0,0-1.131,3.773.85.85,0,0,0,.748,1.019c.889.088,2.259.2,3.356.192a.848.848,0,0,0,.839-.945,7.153,7.153,0,0,0-1.669-3.923Z" transform="translate(-988.831 -3042.796)"/><path class="r" d="M1009.359,3088.526l.678,3.7a2.39,2.39,0,0,0,2,.137l-.323-3.977Z" transform="translate(-998.646 -2992.662)"/><path class="s" d="M963.591,2347.458c-2.729,16.47.592,40.708,1.712,45.451a.739.739,0,0,0,.6.562,4.964,4.964,0,0,0,2.135-.085.678.678,0,0,0,.487-.624c.15-3.835-.12-27.38,2.423-36.685a2.11,2.11,0,0,1,.815-1.166l4.936-3.509.378-5.672Z" transform="translate(-954.709 -2295.714)"/><g transform="translate(7.863 7.869)"><path class="t" d="M981.462,1846.324a76.9,76.9,0,0,0-17.2,2.148c-2.438,14.225-.426,30.632-.426,30.632,6.332,1.66,13.474-1.015,13.474-1.015,1.052-5.946,5.962-22.679,5.962-22.679a26.942,26.942,0,0,0,10-3.173,17.537,17.537,0,0,1-3.466-7.25A27.434,27.434,0,0,1,981.462,1846.324Z" transform="translate(-963.053 -1833.658)"/><path class="u" d="M1413.513,1661.517a1.565,1.565,0,0,0-1.821-.511c-1.2,5.084-7.514,9.206-14,11.221a17.535,17.535,0,0,0,3.466,7.25C1411.921,1673.427,1413.513,1661.517,1413.513,1661.517Z" transform="translate(-1370.946 -1660.897)"/></g><g transform="translate(48.61 0)"><path class="v" d="M1626.764,1541.768c.084.267-.89.674-1.463-.419-.02-.524-.339-2.768-.026-3.195a41.8,41.8,0,0,1,4.9-5.122.769.769,0,0,1,.1,1.068l-1.568,1.633a7.584,7.584,0,0,1,.915,1.81,2.2,2.2,0,0,1-.219,1.617c-.275.5-.651,1.141-1.006,1.645A2.17,2.17,0,0,1,1626.764,1541.768Z" transform="translate(-1625.138 -1533.032)"/><path class="w" d="M1643.286,1594.157l-1.429,1.211-.449,1.206,1.274,1.413a16.432,16.432,0,0,1,.747-2.911C1643.747,1594.559,1643.582,1594.308,1643.286,1594.157Z" transform="translate(-1640.406 -1590.395)"/></g><path class="x" d="M850.143,1909.524l-3.137-7.92s-7.639,5.191-8.9,11.772a18.077,18.077,0,0,1,6.641,1.78C845.316,1912.048,850.143,1909.524,850.143,1909.524Z" transform="translate(-837.936 -1878.921)"/><path class="y" d="M854.163,2096.477s-8.577,4.847-11.471.708a3.254,3.254,0,0,1-.6-2.528,18.081,18.081,0,0,0-6.641-1.78,9.083,9.083,0,0,0,.987,6.227c5.069,9.273,18.856-.512,18.856-.512Z" transform="translate(-835.281 -2058.423)"/><g transform="translate(17.833 24.893)"><path class="z" d="M1125.068,1981.024l4.681-16.347a.476.476,0,0,1,.4-.343c.848-.1,3.306-.377,6.143-.617a69.707,69.707,0,0,1,9.759-.324.478.478,0,0,1,.391.688c-1.349,2.729-6.9,13.828-9.675,17.464a.479.479,0,0,1-.386.19l-10.861-.1A.478.478,0,0,1,1125.068,1981.024Z" transform="translate(-1125.049 -1961.731)"/><path class="aa" d="M1309.394,1938.086l3.394-.566a.244.244,0,0,1,.271.317l-.336,1.018a.243.243,0,0,1-.2.165l-3.266.436a.243.243,0,0,1-.269-.3l.208-.889A.244.244,0,0,1,1309.394,1938.086Z" transform="translate(-1297.663 -1937.517)"/><path class="ab" d="M1274.286,1956.466l.28-1.457a.336.336,0,0,1,.3-.271l6.855-.7a.337.337,0,0,1,.361.414l-.436,1.815a.337.337,0,0,1-.31.258l-6.7.337A.336.336,0,0,1,1274.286,1956.466Z" transform="translate(-1265.096 -1953.024)"/><path class="ac" d="M1136.844,2101.844a11.9,11.9,0,0,1-.389-3.632c.263-.951.773-2.175,2.471-1.9a24.839,24.839,0,0,1,3.7.988.973.973,0,0,1-1.392.839l.8.619s-.115.992-1.2.462l.745.821a.868.868,0,0,1-1.271.293C1139.5,2099.808,1139.12,2102.167,1136.844,2101.844Z" transform="translate(-1135.695 -2086.5)"/></g><path class="ad" d="M1087.655,1758.824l-2.6,7.526a.271.271,0,0,0,.124.327,6.118,6.118,0,0,0,6.345-.427,1.278,1.278,0,0,0,.588-.912l.843-6.514Z" transform="translate(-1069.666 -1744.928)"/><g transform="translate(13.049 3.016)"><path class="ae" d="M1117.859,1645.586s2.858,5.379,2.491,7.552-3.908,2.017-7,.252l-2.161-5.808Z" transform="translate(-1107.258 -1641.675)"/><path class="af" d="M1053.544,1590.9a.222.222,0,0,0,.1-.325,5.784,5.784,0,0,1-.8-1.688s-.514-.329,1.307-.765,4.537-1.112,5.108-2.663c.557-1.511-.906-5.312-3.239-2.284a.222.222,0,0,1-.351,0,2.285,2.285,0,0,0-2.784-.9,2.1,2.1,0,0,0-1.436,2.026.22.22,0,0,1-.261.226,2.557,2.557,0,0,0-2.985,1.392,2.056,2.056,0,0,0,.147,2.468.221.221,0,0,1-.095.367,1.33,1.33,0,0,0-.938,1.518c.077,1.406,1.649,1.282,2.1,1.218a.221.221,0,0,1,.2.07c.384.425,2.113,2.228,3.984,2.445a.224.224,0,0,0,.234-.3l-.81-2.354a.222.222,0,0,1,.12-.276Z" transform="translate(-1047.316 -1582.035)"/><path class="ag" d="M1120.4,1720.934s-2.035-1.4-2.183-.221,1.832,1.7,2.814,1.265Z" transform="translate(-1113.847 -1711.737)"/></g></g></g></g><text class="ah" transform="translate(86 1118)"><tspan x="0" y="0">2</tspan></text></g></g></svg>