<svg xmlns="http://www.w3.org/2000/svg" width="176.584" height="121.636" viewBox="0 0 176.584 121.636"><defs><style>.a{fill:#00ffd3;}.b{fill:#fff;}</style></defs><g transform="translate(-491 -71.008)"><g transform="translate(491 71.008)"><g transform="translate(85.519)"><path class="a" d="M2259.815,879.51a1.953,1.953,0,0,0-1.75,1.953v45.57a1.953,1.953,0,0,0,1.953,1.953h36.422a1.953,1.953,0,1,0,.052-3.906h-34.521V883.417h41.666V915.64a1.953,1.953,0,1,0,3.906.055V881.463a1.953,1.953,0,0,0-1.953-1.953h-45.573C2259.95,879.507,2259.882,879.507,2259.815,879.51Zm45.755,43.377a1.953,1.953,0,0,0-1.933,1.973v7.182h-7.162a1.888,1.888,0,0,0-.2,0,1.956,1.956,0,0,0,.2,3.906h7.162v7.161a1.953,1.953,0,1,0,3.906.055v-7.216h7.162a1.953,1.953,0,1,0,.052-3.906h-7.214V924.88a1.952,1.952,0,0,0-1.912-1.993Z" transform="translate(-2258.065 -879.508)"/><g transform="translate(15.017 11.367)"><rect class="b" width="4.003" height="27.734" transform="translate(15.44)"/><rect class="b" width="4.003" height="20.586" transform="translate(7.72 7.148)"/><rect class="b" width="4.003" height="16.583" transform="translate(0 11.151)"/></g></g><g transform="translate(0 49.864)"><path class="b" d="M1945.156,1107.979h-10.327l-1.569,4.75h-8.51l10.616-29.122h9.336l10.575,29.122h-8.551Zm-2.024-6.2-3.14-9.418-3.1,9.418Z" transform="translate(-1924.75 -1081.105)"/><path class="b" d="M2060.854,1118.865a4.9,4.9,0,0,0,1.819-2.113h7.308a11.056,11.056,0,0,1-9.56,8.936v1.247a5.2,5.2,0,0,1,3.1,1,3.536,3.536,0,0,1,1.4,3.083,3.5,3.5,0,0,1-1.489,3.117,6.17,6.17,0,0,1-3.533,1h-5.646v-3.568h4.849q1.143,0,1.143-.727t-1.143-.727h-2.7v-4.4a11.576,11.576,0,0,1-5.438-2.044,11.071,11.071,0,0,1-3.585-4.312,13.7,13.7,0,0,1-1.264-5.975,13.43,13.43,0,0,1,1.507-6.425,10.82,10.82,0,0,1,4.278-4.4,12.667,12.667,0,0,1,6.374-1.576,12.085,12.085,0,0,1,7.689,2.442,11.076,11.076,0,0,1,4.018,6.633h-7.308a4.745,4.745,0,0,0-4.5-2.84,4.648,4.648,0,0,0-3.759,1.68,7.931,7.931,0,0,0,0,9.005,4.645,4.645,0,0,0,3.759,1.68A4.948,4.948,0,0,0,2060.854,1118.865Z" transform="translate(-2014.977 -1094.03)"/><path class="b" d="M2151.979,1104.112a12,12,0,0,1-4.555-4.468,13.261,13.261,0,0,1,0-12.919,11.875,11.875,0,0,1,4.555-4.451,13.3,13.3,0,0,1,12.625,0,11.784,11.784,0,0,1,4.521,4.451,13.38,13.38,0,0,1,0,12.919,11.872,11.872,0,0,1-4.537,4.468,13.141,13.141,0,0,1-12.608,0Zm3.983-30.255a4.045,4.045,0,0,1,1.437.243,12.478,12.478,0,0,1,1.472.693q.588.312,1,.485a2.141,2.141,0,0,0,.831.173q1.281,0,1.524-1.594h3.429a7.725,7.725,0,0,1-1.818,4.278,4.577,4.577,0,0,1-3.377,1.334,4.047,4.047,0,0,1-1.385-.225,14.474,14.474,0,0,1-1.524-.675q-.589-.312-1-.485a2.153,2.153,0,0,0-.831-.173q-1.247,0-1.559,1.593h-3.394Q2151.736,1073.857,2155.963,1073.857Zm6.426,23.865a7.666,7.666,0,0,0,0-9.127,5.876,5.876,0,0,0-8.227,0,7.765,7.765,0,0,0,0,9.144,5.854,5.854,0,0,0,8.227-.017Z" transform="translate(-2089.044 -1073.857)"/><path class="b" d="M2259.317,1107.376v3.983h7.794v5.161h-7.794v4.4h8.832v5.438h-15.621v-24.419h15.621v5.438Z" transform="translate(-2168.431 -1094.733)"/><path class="b" d="M2323.916,1123.468a7.321,7.321,0,0,1-2.944-5.8h7.239a2.7,2.7,0,0,0,.762,1.87,2.757,2.757,0,0,0,3.239.121,1.55,1.55,0,0,0,.606-1.3,1.838,1.838,0,0,0-1-1.662,17.71,17.71,0,0,0-3.255-1.317,29.207,29.207,0,0,1-3.863-1.541,7.4,7.4,0,0,1-2.563-2.182,6.051,6.051,0,0,1-1.091-3.758,6.848,6.848,0,0,1,1.178-4.035,7.288,7.288,0,0,1,3.256-2.546,12.152,12.152,0,0,1,4.71-.866,10.752,10.752,0,0,1,6.806,1.992,7.168,7.168,0,0,1,2.719,5.594h-7.379a2.176,2.176,0,0,0-.676-1.663,2.427,2.427,0,0,0-1.644-.554,1.759,1.759,0,0,0-1.247.451,1.661,1.661,0,0,0-.485,1.281,1.581,1.581,0,0,0,.537,1.2,4.921,4.921,0,0,0,1.334.866q.8.363,2.355.917a28.951,28.951,0,0,1,3.827,1.576,7.817,7.817,0,0,1,2.6,2.182,5.61,5.61,0,0,1,1.091,3.551,7.186,7.186,0,0,1-1.091,3.914,7.493,7.493,0,0,1-3.152,2.736,10.986,10.986,0,0,1-4.867,1A11.444,11.444,0,0,1,2323.916,1123.468Z" transform="translate(-2219.313 -1093.628)"/></g><g transform="translate(25.815 31.817)"><path class="b" d="M2038.039,1019.754h-6.414l-.975,2.95h-5.285l6.594-18.088h5.8l6.568,18.088h-5.311Zm-1.257-3.849-1.95-5.85-1.924,5.85Z" transform="translate(-2025.365 -1004.334)"/><path class="b" d="M2105.744,1020.565a5.424,5.424,0,0,1-2.182-4.3h5.362a2,2,0,0,0,.565,1.385,2.043,2.043,0,0,0,2.4.09,1.148,1.148,0,0,0,.449-.962,1.362,1.362,0,0,0-.744-1.232,13.159,13.159,0,0,0-2.412-.975,21.6,21.6,0,0,1-2.861-1.142,5.486,5.486,0,0,1-1.9-1.616,4.486,4.486,0,0,1-.808-2.784,5.072,5.072,0,0,1,.873-2.989,5.4,5.4,0,0,1,2.412-1.886,9.007,9.007,0,0,1,3.489-.641,7.961,7.961,0,0,1,5.042,1.475,5.307,5.307,0,0,1,2.014,4.143h-5.465a1.61,1.61,0,0,0-.5-1.231,1.8,1.8,0,0,0-1.219-.411,1.3,1.3,0,0,0-.924.334,1.23,1.23,0,0,0-.36.949,1.171,1.171,0,0,0,.4.885,3.641,3.641,0,0,0,.988.641q.59.269,1.745.68a21.549,21.549,0,0,1,2.835,1.167,5.8,5.8,0,0,1,1.925,1.617,4.155,4.155,0,0,1,.808,2.63,5.325,5.325,0,0,1-.808,2.9,5.55,5.55,0,0,1-2.336,2.027,8.136,8.136,0,0,1-3.6.744A8.478,8.478,0,0,1,2105.744,1020.565Z" transform="translate(-2083.5 -1003.516)"/></g><g transform="translate(125.166 66.875)"><path class="a" d="M2428.389,1140.97v14.49h-2.906v-9.425l-3.882,9.425h-2.2l-3.9-9.425v9.425h-2.906v-14.49h3.3l4.608,10.774,4.608-10.774Z" transform="translate(-2412.592 -1140.762)"/><path class="a" d="M2491.625,1152.638h-5.771l-.954,2.761h-3.052l5.21-14.51h3.384l5.211,14.51h-3.073Zm-.789-2.325-2.1-6.062-2.1,6.062Z" transform="translate(-2464.079 -1140.702)"/><path class="a" d="M2546.163,1140.97v14.49h-2.906v-14.49Z" transform="translate(-2509.732 -1140.762)"/><path class="a" d="M2566.939,1154.484a4.476,4.476,0,0,1-1.92-1.495,3.93,3.93,0,0,1-.726-2.3h3.113a2.015,2.015,0,0,0,.633,1.411,2.246,2.246,0,0,0,1.568.519,2.414,2.414,0,0,0,1.6-.487,1.587,1.587,0,0,0,.581-1.277,1.475,1.475,0,0,0-.394-1.059,2.768,2.768,0,0,0-.986-.654,16.485,16.485,0,0,0-1.629-.53,17.5,17.5,0,0,1-2.294-.819,4.022,4.022,0,0,1-1.515-1.225,3.489,3.489,0,0,1-.633-2.19,3.916,3.916,0,0,1,.644-2.242,4.1,4.1,0,0,1,1.806-1.464,6.572,6.572,0,0,1,2.656-.509,5.765,5.765,0,0,1,3.644,1.09,4.041,4.041,0,0,1,1.546,3.041h-3.2a1.66,1.66,0,0,0-.633-1.235,2.386,2.386,0,0,0-1.567-.488,2.019,2.019,0,0,0-1.36.436,1.577,1.577,0,0,0-.508,1.266,1.305,1.305,0,0,0,.384.965,2.912,2.912,0,0,0,.955.623q.571.239,1.609.55a17.03,17.03,0,0,1,2.3.83,4.151,4.151,0,0,1,1.536,1.246,3.462,3.462,0,0,1,.644,2.18,4.1,4.1,0,0,1-.6,2.159,4.247,4.247,0,0,1-1.765,1.588,6.014,6.014,0,0,1-2.76.592A6.882,6.882,0,0,1,2566.939,1154.484Z" transform="translate(-2525.371 -1140.16)"/></g><g transform="translate(55.075 86.632)"><path class="a" d="M2153.867,1228.954a4.908,4.908,0,0,1-.672,6.576,7.032,7.032,0,0,1-4.587,1.344h-9.2v-18.583h8.909a7.09,7.09,0,0,1,4.468,1.265,4.414,4.414,0,0,1-1.515,7.775A4.382,4.382,0,0,1,2153.867,1228.954Zm-9.291-3.282h2.61q1.949,0,1.95-1.607,0-1.661-1.95-1.661h-2.61Zm4.955,5.4a1.622,1.622,0,0,0-.514-1.292,2.158,2.158,0,0,0-1.463-.448h-2.979v3.374h3.005Q2149.531,1232.71,2149.531,1231.075Z" transform="translate(-2139.41 -1218.002)"/><path class="a" d="M2214.377,1233.843h-6.59l-1,3.032h-5.43l6.775-18.583h5.957l6.748,18.583h-5.456Zm-1.291-3.954-2-6.01-1.977,6.01Z" transform="translate(-2185.462 -1218.002)"/><path class="a" d="M2291.2,1236.874l-3.69-6.853h-.554v6.853h-5.166v-18.583h8.144a8.428,8.428,0,0,1,3.8.777,5.447,5.447,0,0,1,2.346,2.135,5.939,5.939,0,0,1,.79,3.044,5.538,5.538,0,0,1-1.041,3.334,5.623,5.623,0,0,1-3.044,2.042l4.191,7.249Zm-4.244-10.385h2.557a2.219,2.219,0,0,0,1.581-.5,1.908,1.908,0,0,0,.527-1.45,1.856,1.856,0,0,0-.541-1.41,2.19,2.19,0,0,0-1.568-.514h-2.557Z" transform="translate(-2245.263 -1218.002)"/><path class="a" d="M2355.733,1233.843h-6.589l-1,3.032h-5.43l6.775-18.583h5.957l6.748,18.583h-5.456Zm-1.29-3.954-2-6.01-1.976,6.01Z" transform="translate(-2290.551 -1218.002)"/><path class="a" d="M2434.169,1218.292v4.111h-4.955v14.471h-5.166V1222.4h-4.9v-4.111Z" transform="translate(-2347.373 -1218.002)"/><path class="a" d="M2491.235,1233.843h-6.59l-1,3.032h-5.43l6.774-18.583h5.957l6.748,18.583h-5.456Zm-1.292-3.954-2-6.01-1.978,6.01Z" transform="translate(-2391.287 -1218.002)"/><path class="a" d="M2558.735,1234.676a5.572,5.572,0,0,1-2.24-4.415H2562a2.051,2.051,0,0,0,.58,1.423,2.1,2.1,0,0,0,2.464.092,1.179,1.179,0,0,0,.461-.989,1.4,1.4,0,0,0-.764-1.265,13.493,13.493,0,0,0-2.478-1,22.271,22.271,0,0,1-2.939-1.173,5.634,5.634,0,0,1-1.95-1.66,4.606,4.606,0,0,1-.83-2.86,5.214,5.214,0,0,1,.9-3.071,5.554,5.554,0,0,1,2.478-1.937,9.262,9.262,0,0,1,3.585-.659,8.178,8.178,0,0,1,5.179,1.516,5.452,5.452,0,0,1,2.069,4.257h-5.615a1.656,1.656,0,0,0-.513-1.265,1.849,1.849,0,0,0-1.252-.422,1.34,1.34,0,0,0-.949.343,1.266,1.266,0,0,0-.369.975,1.2,1.2,0,0,0,.409.909,3.744,3.744,0,0,0,1.015.659q.605.277,1.792.7a22.1,22.1,0,0,1,2.913,1.2,5.945,5.945,0,0,1,1.977,1.661,4.265,4.265,0,0,1,.831,2.7,5.463,5.463,0,0,1-.831,2.978,5.7,5.7,0,0,1-2.4,2.083,8.371,8.371,0,0,1-3.7.764A8.71,8.71,0,0,1,2558.735,1234.676Z" transform="translate(-2449.483 -1217.161)"/></g><g transform="translate(105.197 110.66)"><g transform="translate(0 0)"><path class="b" d="M2341.141,1312.006a4.6,4.6,0,0,1,1.97,1.87,6.307,6.307,0,0,1,0,5.719,4.518,4.518,0,0,1-1.97,1.848,6.762,6.762,0,0,1-3.04.639h-3.341v-10.73h3.341A6.623,6.623,0,0,1,2341.141,1312.006Zm.131,7.82a4.189,4.189,0,0,0,1.093-3.087,4.279,4.279,0,0,0-1.1-3.125,4.232,4.232,0,0,0-3.164-1.124h-1.94v8.436h1.94A4.278,4.278,0,0,0,2341.272,1319.827Z" transform="translate(-2334.76 -1311.214)"/><path class="b" d="M2381.56,1319.874h-4.68l-.861,2.386h-1.479l3.879-10.668h1.617l3.864,10.668h-1.479Zm-.4-1.139-1.94-5.419-1.94,5.419Z" transform="translate(-2364.333 -1311.392)"/><path class="b" d="M2440.082,1317.032a2.8,2.8,0,0,1,.77.954,2.773,2.773,0,0,1-.131,2.686,2.816,2.816,0,0,1-1.208,1.031,4.305,4.305,0,0,1-1.871.378h-4v-10.73h3.848a4.352,4.352,0,0,1,1.862.362,2.636,2.636,0,0,1,1.154.977,2.555,2.555,0,0,1,.385,1.385,2.4,2.4,0,0,1-.515,1.578,2.887,2.887,0,0,1-1.363.9A2.266,2.266,0,0,1,2440.082,1317.032Zm-5.042-1.047h2.355a2.27,2.27,0,0,0,1.524-.462,1.783,1.783,0,0,0,0-2.555,2.322,2.322,0,0,0-1.555-.462h-2.325Zm4.11,4.449a1.7,1.7,0,0,0,.585-1.37,1.739,1.739,0,0,0-.615-1.409,2.485,2.485,0,0,0-1.647-.516h-2.433v3.787h2.479A2.458,2.458,0,0,0,2439.15,1320.434Z" transform="translate(-2408.27 -1311.214)"/><path class="b" d="M2471.042,1321.132a5.129,5.129,0,0,1-1.947-1.955,5.93,5.93,0,0,1,0-5.65,5.13,5.13,0,0,1,1.947-1.955,5.68,5.68,0,0,1,5.465,0,5.085,5.085,0,0,1,1.939,1.947,6.019,6.019,0,0,1,0,5.665,5.086,5.086,0,0,1-1.939,1.947,5.678,5.678,0,0,1-5.465,0Zm4.749-1.039a3.691,3.691,0,0,0,1.417-1.494,5.171,5.171,0,0,0,0-4.5,3.716,3.716,0,0,0-1.408-1.485,4.2,4.2,0,0,0-4.064,0,3.71,3.71,0,0,0-1.409,1.485,5.174,5.174,0,0,0,0,4.5,3.683,3.683,0,0,0,1.417,1.494,4.178,4.178,0,0,0,4.048,0Z" transform="translate(-2434.096 -1310.856)"/><path class="b" d="M2518.98,1320.943h3.756v1.139h-5.157v-10.73h1.4Z" transform="translate(-2470.674 -1311.214)"/><path class="b" d="M2544.107,1321.411a3.162,3.162,0,0,1-1.316-1.047,2.68,2.68,0,0,1-.493-1.547h1.493a1.966,1.966,0,0,0,.624,1.27,2.235,2.235,0,0,0,1.593.516,2.327,2.327,0,0,0,1.578-.5,1.623,1.623,0,0,0,.577-1.285,1.46,1.46,0,0,0-.339-1,2.168,2.168,0,0,0-.846-.585,13.434,13.434,0,0,0-1.37-.431,12.068,12.068,0,0,1-1.7-.554,2.749,2.749,0,0,1-1.093-.87,2.554,2.554,0,0,1-.454-1.593,2.755,2.755,0,0,1,.446-1.555,2.913,2.913,0,0,1,1.255-1.047,4.42,4.42,0,0,1,1.854-.369,3.891,3.891,0,0,1,2.472.754,2.788,2.788,0,0,1,1.084,2h-1.539a1.664,1.664,0,0,0-.646-1.085,2.3,2.3,0,0,0-1.509-.47,2.187,2.187,0,0,0-1.432.454,1.55,1.55,0,0,0-.554,1.27,1.376,1.376,0,0,0,.331.955,2.133,2.133,0,0,0,.815.562q.485.193,1.362.439a12.884,12.884,0,0,1,1.71.577,2.859,2.859,0,0,1,1.108.878,2.551,2.551,0,0,1,.462,1.609,2.822,2.822,0,0,1-.416,1.478,3.049,3.049,0,0,1-1.231,1.124,4.063,4.063,0,0,1-1.924.431A4.585,4.585,0,0,1,2544.107,1321.411Z" transform="translate(-2489.05 -1310.813)"/><path class="b" d="M2583.1,1319.874h-4.679l-.862,2.386h-1.478l3.879-10.668h1.616l3.864,10.668h-1.478Zm-.4-1.139-1.939-5.419-1.939,5.419Z" transform="translate(-2514.162 -1311.392)"/></g></g></g></g></svg>