<svg xmlns="http://www.w3.org/2000/svg" xmlns:xlink="http://www.w3.org/1999/xlink" width="292" height="37.069" viewBox="0 0 292 37.069"><defs><style>.a,.f,.g{fill:#fff;}.b,.c{fill:#00ffd3;}.c{opacity:0.5;}.d{fill:url(#a);}.e{fill:url(#b);}.f{opacity:0.8;}.g{opacity:0.9;}</style><linearGradient id="a" x1="-0.188" y1="0.873" x2="0.827" y2="0.184" gradientUnits="objectBoundingBox"><stop offset="0.225" stop-color="#fff" stop-opacity="0.4"/><stop offset="0.335" stop-color="#fff" stop-opacity="0.439"/><stop offset="0.523" stop-color="#fff" stop-opacity="0.549"/><stop offset="0.733" stop-color="#fff" stop-opacity="0.698"/></linearGradient><linearGradient id="b" x1="1.188" y1="0.873" x2="0.173" y2="0.184" xlink:href="#a"/></defs><g transform="translate(-49.932 -977.072)"><g transform="translate(97.665 981.384)"><rect class="a" width="6.133" height="28.962" transform="translate(21.634)"/><path class="a" d="M126.667,1009.556a4.745,4.745,0,0,1,0-9.486,4.232,4.232,0,0,1,3.966,2.29l5.355-3.107a10.814,10.814,0,1,0,0,11.079l-5.355-3.065A4.191,4.191,0,0,1,126.667,1009.556Z" transform="translate(-115.916 -986.072)"/><path class="a" d="M184.653,1005.41" transform="translate(-134.928 -989.222)"/><g transform="translate(43.592 0.001)"><path class="a" d="M193.139,989.115v-6.081H187v10.373A20.451,20.451,0,0,1,193.139,989.115Z" transform="translate(-179.169 -983.034)"/><path class="a" d="M180.743,1000.183c.427-.5.83-.969,1.178-1.359l.02-.022.367-.394v-3.585h-6.134V1005.1A61.08,61.08,0,0,0,180.743,1000.183Z" transform="translate(-176.175 -986.295)"/></g><path class="a" d="M200.847,1004.755a11.9,11.9,0,0,1-.234,2.384c-.075.384-.173.756-.282,1.121a10.7,10.7,0,0,1-.384,1.065.062.062,0,0,0-.008.024,9.728,9.728,0,0,1-8.862,6.2,7.691,7.691,0,0,1-6.09-2.486v1.918h-6.133v-1.57c.141-.156.286-.317.43-.474,2.076-2.295,4.081-4.507,5.969-6.4a4.572,4.572,0,0,0,4.6,3.211,4.986,4.986,0,0,0,0-9.97h-.023a4.883,4.883,0,0,0-2.5.807c-.086.055-.172.109-.255.168,0,0,0,0-.007,0a5.58,5.58,0,0,0-.506.407,100.8,100.8,0,0,0-9.548,9.716c-.133.145-.266.294-.4.443-2.385,2.522-4.821,4.484-9.587,4.484,0,0-1.218.011-1.853,0-4.128-.078-7.644-3.187-7.644-8.706V994.545h6.137V1006.2a3.289,3.289,0,0,0,3.38,3.646h.274c.07,0,.137,0,.2-.008h0c.024,0,.048,0,.071,0,3.141-.074,6.677-3.678,10.319-7.931.415-.482.8-.936,1.128-1.3a42.182,42.182,0,0,1,3.779-3.76,13.743,13.743,0,0,1,4.613-2.62,13.411,13.411,0,0,1,3.662-.4,9.74,9.74,0,0,1,8.847,6.336h0v0c.035.086.071.169.1.258.07.172.133.357.192.537a11.721,11.721,0,0,1,.474,1.986c.043.294.075.591.1.9S200.847,1004.449,200.847,1004.755Z" transform="translate(-127.425 -986.016)"/><path class="a" d="M216.979,1012.233a10.443,10.443,0,0,1-.282,1.121C216.806,1012.989,216.9,1012.617,216.979,1012.233Z" transform="translate(-143.792 -991.109)"/><path class="a" d="M237.2,1004.813c0-6.173-4.416-10.792-10.384-10.792a10.776,10.776,0,0,0-8.065,3.335,24.927,24.927,0,0,1,1.088,2.311c.049.135.1.279.149.433a14.813,14.813,0,0,1,.585,2.471c.051.346.093.715.123,1.09l0,.025c.027.378.04.747.04,1.127a14.727,14.727,0,0,1-1.062,5.552l-.019.048c-.016.037-.031.075-.046.112l-.039.09a13.784,13.784,0,0,1-.826,1.628,11.381,11.381,0,0,0,8.52,3.365c3.883,0,6.909-1.431,8.912-4.209l-4.9-2.825a5.339,5.339,0,0,1-3.927,1.556c-2.248,0-4.128-.736-4.906-2.862h14.515A11.842,11.842,0,0,0,237.2,1004.813Zm-14.883-2.125a4.606,4.606,0,0,1,8.792,0Z" transform="translate(-144.359 -986.072)"/></g><g transform="translate(249.853 980.963)"><path class="b" d="M348.528,995.542l-7.617,20.587h-7l-7.617-20.587h6.835l4.283,13.052,4.282-13.052Z" transform="translate(-326.293 -986.072)"/><path class="b" d="M378.612,995.322v20.587h-6.176v-1.935a7.732,7.732,0,0,1-6.135,2.512c-5.394,0-9.841-4.735-9.841-10.871s4.447-10.87,9.841-10.87a7.732,7.732,0,0,1,6.135,2.512v-1.935Zm-6.176,10.293a4.9,4.9,0,1,0-4.9,5.023A4.7,4.7,0,0,0,372.436,1005.615Z" transform="translate(-334.637 -985.851)"/><path class="b" d="M391.538,982.451h6.176v30.057h-6.176Z" transform="translate(-344.339 -982.451)"/><path class="b" d="M402.637,1005.615a10.911,10.911,0,1,1,10.911,10.871A10.791,10.791,0,0,1,402.637,1005.615Zm15.647,0a4.737,4.737,0,1,0-4.735,4.859A4.617,4.617,0,0,0,418.284,1005.615Z" transform="translate(-347.409 -985.851)"/><path class="b" d="M448.856,994.973v7c-2.553-.412-6.176.618-6.176,4.693v9.306H436.5V995.385h6.176v3.665C443.5,996.29,446.262,994.973,448.856,994.973Z" transform="translate(-356.777 -985.915)"/></g><g transform="translate(197.459 982.12)"><path class="a" d="M276.187,984.05v29.043h-6.223v-1.95a7.794,7.794,0,0,1-6.182,2.531c-5.435,0-9.916-4.772-9.916-10.954s4.481-10.952,9.916-10.952a7.791,7.791,0,0,1,6.182,2.53V984.05Zm-6.223,18.67a4.939,4.939,0,1,0-4.937,5.062A4.737,4.737,0,0,0,269.964,1002.72Z" transform="translate(-253.866 -984.05)"/><path class="a" d="M287.6,1005.67a10.994,10.994,0,1,1,10.994,10.954A10.873,10.873,0,0,1,287.6,1005.67Zm15.766,0a4.773,4.773,0,1,0-4.772,4.9A4.653,4.653,0,0,0,303.361,1005.67Z" transform="translate(-263.195 -987.001)"/></g><path class="c" d="M79.777,999.227l-.136.137-2.053-2.05a.722.722,0,0,0-1.025,0l-6.3,6.3-2.09-2.089a.722.722,0,0,0-1.024,0l-2.05,2.05-.137-.137a.724.724,0,0,1,0-1.025l2.187-2.186a.722.722,0,0,1,1.024,0l2.09,2.09,6.3-6.3a.724.724,0,0,1,1.025,0l2.189,2.186A.728.728,0,0,1,79.777,999.227Z" transform="translate(-4.099 -5.181)"/><path class="b" d="M79.774,999.86l-8.862,8.862a.727.727,0,0,1-1.028,0l-4.651-4.654,2.05-2.05a.722.722,0,0,1,1.024,0l2.09,2.089,6.3-6.3a.722.722,0,0,1,1.025,0Z" transform="translate(-4.232 -5.677)"/><path class="c" d="M79.777,1001.886l-9,9a.726.726,0,0,1-1.028,0l-4.787-4.79a.724.724,0,0,1,0-1.025l.137-.136,4.651,4.654a.727.727,0,0,0,1.028,0l8.862-8.862.136.136A.728.728,0,0,1,79.777,1001.886Z" transform="translate(-4.099 -6.542)"/><path class="a" d="M83.187,1026.268c4.543,0,9.595-3.943,9.831-4.118-.035.02-.076.04-.111.058a2.221,2.221,0,0,1-.6.21c-.7.125-1.747-.593-4-1.5,0,0,0,0-.007,0C87.648,1023.51,85.887,1024.88,83.187,1026.268Z" transform="translate(-9.198 -12.127)"/><path class="d" d="M94.947,1015.827a1.556,1.556,0,0,1-.7.271c-.689.122-1.765-.617-3.982-1.521,0,0,0,0-.007,0v0l.09-16.594a28.434,28.434,0,0,1,7,6.623l0,0C97.355,1011.388,97.519,1013.84,94.947,1015.827Z" transform="translate(-11.154 -5.784)"/><path class="e" d="M57.058,1014.579v0s0,0-.007,0c-2.217.9-3.293,1.643-3.982,1.521a1.555,1.555,0,0,1-.7-.271c-2.572-1.987-2.407-4.439-2.405-11.219l0,0a28.434,28.434,0,0,1,7-6.623l.09,16.594Z" transform="translate(-0.008 -5.784)"/><path class="a" d="M63.086,1026.268c-4.544,0-9.6-3.943-9.831-4.118.035.02.076.04.111.058a2.221,2.221,0,0,0,.6.21c.7.125,1.748-.593,4-1.5,0,0,0,0,.006,0C58.624,1023.51,60.386,1024.88,63.086,1026.268Z" transform="translate(-0.919 -12.127)"/><path class="f" d="M81.826,1020.076c-.647,2.593-2.408,3.963-5.106,5.35l-.006,0H64.885l-.006,0c-2.7-1.387-4.458-2.758-5.105-5.35l.022-.009a28.791,28.791,0,0,1,22.006,0Z" transform="translate(-2.722 -11.288)"/><path class="a" d="M96.439,1000.519v.1l0,0a28.435,28.435,0,0,0-7-6.623c0-.064,0-.128,0-.19.046-4.942-.565-7.339-2.482-10.251l.14.112,7.7,6.151a5.077,5.077,0,0,1,1.536,2.9C96.523,993.973,96.451,999.694,96.439,1000.519Z" transform="translate(-10.24 -1.792)"/><path class="f" d="M81.882,992.009c0,.062,0,.127,0,.19l-9.789-6.27a2.355,2.355,0,0,0-1.1-.372c-.074.006-.375.006-.451,0a2.355,2.355,0,0,0-1.1.372L59.647,992.2c0-.062,0-.127,0-.189-.046-4.955.569-7.349,2.5-10.274v0l3.337-2.664,1.024-.692.112-.072a7.727,7.727,0,0,1,3.644-1.224c.094-.007.189-.007.279-.01s.15,0,.224.006.153,0,.226-.006c.09,0,.184,0,.279.01a7.727,7.727,0,0,1,3.644,1.224l.112.072.935.633,3.441,2.747C81.317,984.67,81.928,987.067,81.882,992.009Z" transform="translate(-2.686 0)"/><path class="a" d="M56.959,993.792c0,.062,0,.127,0,.189h0a28.433,28.433,0,0,0-7,6.623l0,0v0c0-.25-.095-6.566.1-7.9a5.078,5.078,0,0,1,1.608-2.971l7.646-6.105.142-.112C57.529,986.443,56.913,988.837,56.959,993.792Z" transform="translate(0 -1.783)"/><line class="g" y2="0.002" transform="translate(59.457 987.484)"/></g></svg>